<?xml version="1.0" standalone="no"?>
<!DOCTYPE svg PUBLIC "-//W3C//DTD SVG 20010904//EN"
 "http://www.w3.org/TR/2001/REC-SVG-20010904/DTD/svg10.dtd">
<svg version="1.0" xmlns="http://www.w3.org/2000/svg"
 width="512.000000pt" height="512.000000pt" viewBox="0 0 512.000000 512.000000"
 preserveAspectRatio="xMidYMid meet">

<g transform="translate(0.000000,512.000000) scale(0.100000,-0.100000)"
fill="#000000" stroke="none">
<path d="M1215 4946 c-72 -33 -95 -83 -95 -210 l0 -94 -157 -4 c-126 -4 -170
-10 -216 -26 -203 -74 -333 -206 -403 -412 -18 -53 -19 -121 -19 -1800 0
-1679 1 -1747 19 -1800 71 -209 207 -345 416 -416 53 -18 121 -19 1795 -19
1896 0 1775 -4 1900 57 127 62 216 151 279 278 65 130 61 -2 61 1905 0 1680
-1 1742 -19 1795 -61 178 -162 299 -313 375 -96 48 -140 57 -305 62 l-156 5
-4 108 c-2 91 -6 113 -24 136 -39 53 -71 69 -134 69 -63 0 -95 -16 -134 -69
-18 -23 -22 -45 -24 -137 l-4 -109 -478 0 -478 0 -4 109 c-3 118 -12 141 -72
185 -39 29 -133 29 -172 0 -60 -44 -69 -67 -72 -185 l-4 -109 -478 0 -478 0
-4 109 c-3 118 -12 141 -70 184 -34 25 -113 32 -153 13z m-93 -735 c3 -118 12
-141 72 -185 39 -29 133 -29 172 0 60 44 69 67 72 185 l4 109 478 0 478 0 4
-109 c3 -118 12 -141 72 -185 39 -29 133 -29 172 0 60 44 69 67 72 185 l4 109
478 0 478 0 4 -109 c3 -118 12 -141 72 -185 39 -29 133 -29 172 0 60 44 69 66
72 186 l4 110 131 -4 c107 -3 141 -7 178 -24 58 -27 116 -84 143 -143 l21 -46
0 -1705 0 -1705 -21 -46 c-27 -58 -85 -116 -143 -143 l-46 -21 -1705 0 -1705
0 -46 21 c-58 27 -116 85 -143 143 l-21 46 -3 1675 c-2 1197 0 1690 8 1727 21
97 95 178 192 208 25 8 92 14 160 14 l116 1 4 -109z"/>
<path d="M2030 3353 c-16 -3 -101 -80 -228 -206 l-202 -201 -118 116 c-64 65
-130 122 -145 127 -132 50 -259 -83 -203 -212 8 -18 99 -116 202 -219 279
-276 245 -280 607 80 283 283 307 313 293 384 -18 97 -101 150 -206 131z"/>
<path d="M2655 3026 c-67 -29 -105 -106 -91 -181 9 -47 59 -102 104 -115 25
-8 233 -10 634 -8 585 3 597 3 624 24 53 39 69 71 69 134 0 63 -16 95 -69 134
-27 21 -39 21 -634 23 -489 2 -613 0 -637 -11z"/>
<path d="M2030 1913 c-16 -3 -101 -80 -228 -206 l-202 -201 -118 116 c-64 65
-130 122 -145 127 -132 50 -259 -83 -203 -212 8 -18 99 -116 202 -219 279
-276 245 -280 607 80 283 283 307 313 293 384 -18 97 -101 150 -206 131z"/>
<path d="M2655 1586 c-67 -29 -105 -106 -91 -181 9 -47 59 -102 104 -115 25
-8 233 -10 634 -8 585 3 597 3 624 24 53 39 69 71 69 134 0 63 -16 95 -69 134
-27 21 -39 21 -634 23 -489 2 -613 0 -637 -11z"/>
</g>
</svg>
