<?xml version="1.0" standalone="no"?>
<!DOCTYPE svg PUBLIC "-//W3C//DTD SVG 20010904//EN"
 "http://www.w3.org/TR/2001/REC-SVG-20010904/DTD/svg10.dtd">
<svg version="1.0" xmlns="http://www.w3.org/2000/svg"
 width="512.000000pt" height="512.000000pt" viewBox="0 0 512.000000 512.000000"
 preserveAspectRatio="xMidYMid meet">

<g transform="translate(0.000000,512.000000) scale(0.100000,-0.100000)"
fill="#000000" stroke="none">
<path d="M3366 4914 c-141 -34 -102 2 -1167 -1063 -1069 -1070 -1029 -1025
-1064 -1172 -19 -81 -19 -157 0 -238 35 -147 -5 -102 1064 -1172 1070 -1069
1025 -1029 1172 -1064 122 -28 227 -16 346 42 211 102 326 352 268 578 -37
140 -20 121 -854 958 l-776 777 776 778 c659 661 780 786 807 838 107 207 72
440 -90 603 -126 126 -308 177 -482 135z"/>
</g>
</svg>
