<?xml version="1.0" standalone="no"?>
<!DOCTYPE svg PUBLIC "-//W3C//DTD SVG 20010904//EN"
 "http://www.w3.org/TR/2001/REC-SVG-20010904/DTD/svg10.dtd">
<svg version="1.0" xmlns="http://www.w3.org/2000/svg"
 width="512.000000pt" height="512.000000pt" viewBox="0 0 512.000000 512.000000"
 preserveAspectRatio="xMidYMid meet">

<g transform="translate(0.000000,512.000000) scale(0.100000,-0.100000)"
fill="#000000" stroke="none">
<path d="M2170 4667 c-113 -34 -176 -73 -271 -167 -65 -65 -93 -102 -120 -157
l-34 -72 -580 -3 c-572 -3 -581 -3 -620 -25 -77 -41 -115 -105 -115 -193 0
-84 53 -161 132 -194 32 -14 115 -16 611 -16 l573 0 22 -52 c32 -76 112 -180
179 -232 123 -97 251 -140 408 -139 248 2 452 133 566 363 l30 60 787 0 c745
0 789 1 827 19 77 36 125 111 125 196 0 83 -39 148 -115 188 -40 22 -43 22
-835 25 l-795 4 -38 80 c-74 152 -234 278 -412 323 -89 22 -234 19 -325 -8z"/>
<path d="M3285 3185 c-203 -44 -370 -178 -451 -361 l-24 -54 -1113 0 -1114 0
-44 -23 c-24 -13 -57 -43 -74 -66 -27 -39 -30 -50 -30 -120 0 -66 4 -83 25
-114 14 -21 43 -50 64 -65 l39 -27 1123 -3 1123 -2 37 -78 c28 -59 55 -95 118
-158 89 -89 144 -123 255 -161 289 -97 616 38 759 314 l43 82 268 3 c267 3
268 3 304 28 21 14 50 43 65 64 24 35 27 49 27 116 0 65 -4 82 -25 113 -14 21
-43 50 -64 65 l-39 27 -268 3 -268 3 -43 82 c-131 253 -422 392 -693 332z"/>
<path d="M1835 1701 c-214 -34 -389 -160 -482 -348 l-36 -73 -359 0 c-302 0
-365 -2 -396 -16 -79 -33 -132 -110 -132 -194 0 -88 38 -152 115 -193 39 -21
53 -22 406 -25 l366 -3 38 -75 c86 -169 257 -298 443 -334 94 -19 241 -8 330
23 150 52 284 169 356 309 l38 73 1006 5 1007 5 45 25 c67 38 103 96 108 174
5 71 -14 120 -65 168 -64 61 -8 58 -1101 58 l-999 0 -38 78 c-73 148 -241 285
-400 326 -77 19 -187 27 -250 17z"/>
</g>
</svg>
